# xmcd
#
# Track frame offsets: 
#        150
#        13054
#        20736
#        34344
#        56262
#        78403
#        95642
#        116097
#        138249
#        164521
#        183709
#        197913
#        205364
#        222081
#        253315
#
# Disc length: 3731 seconds
#
# Revision: 1
# Processed by: cddbd v1.5.2PL0 Copyright (c) Steve Scherf et al.
# Submitted via: ExactAudioCopy v0.90b4
#
DISCID=e20e910f
DTITLE=Pino Daniele - Concerto Medina Tour 2001
DYEAR=2002
DGENRE=Blues
TTITLE0=Terra Mia
TTITLE1=Viento
TTITLE2=Lazzari Felici
TTITLE3=Bel Orizzonte
TTITLE4=Dubbi Non Ho
TTITLE5=Basta Na Jurnata 'E Sole
TTITLE6=Napule E'
TTITLE7=Quando Chiove
TTITLE8=Anima
TTITLE9=Chi Tene 'O Mare
TTITLE10=Un Cielo Senza Nuvole
TTITLE11=Sule Pe Parlà
TTITLE12=Alleria
TTITLE13=Neve Al Sole
TTITLE14=Via Medina
EXTD=
EXTT0=
EXTT1=
EXTT2=
EXTT3=
EXTT4=
EXTT5=
EXTT6=
EXTT7=
EXTT8=
EXTT9=
EXTT10=
EXTT11=
EXTT12=
EXTT13=
EXTT14=
PLAYORDER=
